<svg xmlns="http://www.w3.org/2000/svg" viewBox="0 0 64 64" width="128px" height="128px">
    <script xmlns="" id="dashlane_webauthn" name="forward_webauthn_ready" />
    <path fill="#f9e3ae" d="M21,42h22c2.209,0,4,1.791,4,4v3H17v-3C17,43.791,18.791,42,21,42z" />
    <path fill="#efc88e" d="M32,42h11c2.209,0,4,1.791,4,4v3H32V42z" />
    <path fill="#8d6c9f"
        d="M47,50H17c-0.553,0-1-0.447-1-1v-3c0-2.757,2.243-5,5-5h22c2.757,0,5,2.243,5,5v3 C48,49.553,47.553,50,47,50z M18,48h28v-2c0-1.654-1.346-3-3-3H21c-1.654,0-3,1.346-3,3V48z" />
    <path fill="#f9e3ae"
        d="M22.999,37C22.999,29.155,33,26.75,33,22.5c0-0.375-0.166-0.461-0.375-0.5c-0.25,1-1,2-2.875,2 c-1.25,0-2.25-1-2.25-1c-2.131,0.814-3.5,2-3.5,2l-4-2.886c1.182-3.667,7.091-8.557,7.091-8.557l1.182-2.445 C29.513,10.471,30.93,10.145,32,10V5c0,0,4.192,1.144,5.572,5.594C41.091,11.809,46,14.693,46,23c0,7.335-5,9.11-5,14H22.999z" />
    <path fill="#efc88e"
        d="M46,23c0,7.33-5,9.11-5,14h-8.96C32.01,36.83,32,36.67,32,36.5c0-3.96,4.5-6.25,6.08-8.24 C39.45,26.52,40,25.27,40,23c0-4.33-1.75-5.83-4.39-6.73c-2.43-0.84-3.55-3.09-3.61-5.52c-0.01-0.12-0.01-0.39,0-0.75 c-0.01-1.61,0-5,0-5s4.19,1.14,5.57,5.59C41.09,11.81,46,14.69,46,23z" />
    <path fill="#8d6c9f"
        d="M41,38H22.999c-0.553,0-1-0.447-1-1c0-4.993,3.604-7.939,6.499-10.308 c0.747-0.611,1.454-1.189,2.034-1.747C30.283,24.981,30.022,25,29.75,25c-1.032,0-1.896-0.473-2.422-0.849 c-1.624,0.712-2.663,1.596-2.675,1.605c-0.352,0.303-0.863,0.326-1.238,0.054l-4-2.886c-0.352-0.253-0.5-0.704-0.367-1.117 c1.154-3.58,6.22-8.015,7.235-8.878l1.089-2.253c0.094-0.194,0.249-0.354,0.44-0.453c1.105-0.571,2.291-0.893,3.188-1.07V5 c0-0.312,0.146-0.605,0.393-0.795c0.249-0.188,0.574-0.25,0.87-0.17c0.187,0.051,4.44,1.26,6.102,5.781 C44.096,11.969,47,16.401,47,23c0,4.332-1.613,6.838-3.037,9.048C42.91,33.684,42,35.097,42,37C42,37.553,41.553,38,41,38z M24.063,36h15.998c0.249-1.974,1.21-3.467,2.22-5.035C43.618,28.89,45,26.744,45,23c0-5.911-2.536-9.66-7.754-11.461 c-0.301-0.104-0.534-0.345-0.629-0.649C35.865,8.466,34.181,7.157,33,6.511V10c0,0.501-0.37,0.924-0.866,0.991 c-0.677,0.091-1.937,0.322-3.111,0.867l-1.031,2.135c-0.063,0.129-0.152,0.243-0.263,0.335c-1.46,1.209-5.235,4.715-6.512,7.431 l2.767,1.996c0.645-0.458,1.747-1.149,3.16-1.689c0.368-0.14,0.784-0.052,1.063,0.228C28.405,22.486,29.079,23,29.75,23 c1.429,0,1.771-0.709,1.905-1.242c0.127-0.514,0.634-0.83,1.153-0.741C33.555,21.156,34,21.711,34,22.5 c0,2.276-2.058,3.959-4.235,5.74C27.292,30.263,24.518,32.531,24.063,36z" />
    <path fill="#faefde" d="M14,49h36c1.105,0,2,0.895,2,2v8H12v-8C12,49.895,12.895,49,14,49z" />
    <path fill="#efd8be" d="M52,59H12v-2c0-1.657,1.343-3,3-3h34c1.657,0,3,1.343,3,3V59z" />
    <path fill="#a9a7ae" d="M12,59H4V49h6c1.105,0,2,0.895,2,2V59z" />
    <path fill="#8b8e98" d="M12,59H4v-5h5c1.657,0,3,1.343,3,3V59z" />
    <path fill="#a9a7ae" d="M52,59h8V49h-6c-1.105,0-2,0.895-2,2V59z" />
    <path fill="#8b8e98" d="M52,59h8v-5h-5c-1.657,0-3,1.343-3,3V59z" />
    <path fill="#8d6c9f"
        d="M37 56c.552 0 1-.447 1-1v-2c0-.553-.448-1-1-1s-1 .447-1 1v2C36 55.553 36.448 56 37 56zM32 56c.552 0 1-.447 1-1v-2c0-.553-.448-1-1-1s-1 .447-1 1v2C31 55.553 31.448 56 32 56zM27 56c.552 0 1-.447 1-1v-2c0-.553-.448-1-1-1s-1 .447-1 1v2C26 55.553 26.448 56 27 56zM22 56c.552 0 1-.447 1-1v-2c0-.553-.448-1-1-1s-1 .447-1 1v2C21 55.553 21.448 56 22 56zM17 56c.552 0 1-.447 1-1v-2c0-.553-.448-1-1-1s-1 .447-1 1v2C16 55.553 16.448 56 17 56zM7 56c.552 0 1-.447 1-1v-2c0-.553-.448-1-1-1s-1 .447-1 1v2C6 55.553 6.448 56 7 56zM57 56c.552 0 1-.447 1-1v-2c0-.553-.448-1-1-1s-1 .447-1 1v2C56 55.553 56.448 56 57 56zM42 56c.552 0 1-.447 1-1v-2c0-.553-.448-1-1-1s-1 .447-1 1v2C41 55.553 41.448 56 42 56zM47 56c.552 0 1-.447 1-1v-2c0-.553-.448-1-1-1s-1 .447-1 1v2C46 55.553 46.448 56 47 56zM60 60H4c-.552 0-1-.448-1-1l0 0c0-.552.448-1 1-1h56c.552 0 1 .448 1 1l0 0C61 59.552 60.552 60 60 60z" />
    <path fill="#8d6c9f"
        d="M53,60H11v-9c0-1.654,1.346-3,3-3h36c1.654,0,3,1.346,3,3V60z M13,58h38v-7c0-0.552-0.448-1-1-1H14 c-0.552,0-1,0.448-1,1V58z" />
    <path fill="#8d6c9f"
        d="M13 60H4c-.553 0-1-.447-1-1s.447-1 1-1h7v-7c0-.552-.448-1-1-1H4c-.553 0-1-.447-1-1s.447-1 1-1h6c1.654 0 3 1.346 3 3V60zM60 60h-9v-9c0-1.654 1.346-3 3-3h6c.553 0 1 .447 1 1s-.447 1-1 1h-6c-.552 0-1 .448-1 1v7h7c.553 0 1 .447 1 1S60.553 60 60 60z" />
    <path fill="#cda1a7"
        d="M41.5,37c-1.181,0-17.82,0-19,0c-1.381,0-2.5,1.119-2.5,2.5c0,1.381,1.119,2.5,2.5,2.5 c1.18,0,17.819,0,19,0c1.381,0,2.5-1.119,2.5-2.5C44,38.119,42.881,37,41.5,37z" />
    <path fill="#c4939c"
        d="M41.5,37c-0.591,0-5.045,0-9.5,0v5c4.455,0,8.909,0,9.5,0c1.381,0,2.5-1.119,2.5-2.5 C44,38.119,42.881,37,41.5,37z" />
    <path fill="#8d6c9f"
        d="M41.5,43h-19c-1.93,0-3.5-1.57-3.5-3.5s1.57-3.5,3.5-3.5h19c1.93,0,3.5,1.57,3.5,3.5 S43.43,43,41.5,43z M22.5,38c-0.827,0-1.5,0.673-1.5,1.5s0.673,1.5,1.5,1.5h19c0.827,0,1.5-0.673,1.5-1.5S42.327,38,41.5,38H22.5z" />
</svg>